<mxfile host="app.diagrams.net" modified="2023-10-30T08:26:17.858Z" agent="Mozilla/5.0 (Windows NT 10.0; Win64; x64) AppleWebKit/537.36 (KHTML, like Gecko) Chrome/118.0.0.0 Safari/537.36" etag="Nux7_ssEylto-p5CEHzz" version="22.0.8" type="device">
  <diagram name="페이지-1" id="jEjnBQMDA6VWEUndvyZC">
    <mxGraphModel dx="1313" dy="691" grid="1" gridSize="10" guides="1" tooltips="1" connect="1" arrows="1" fold="1" page="1" pageScale="1" pageWidth="827" pageHeight="1169" background="#ffffff" math="0" shadow="0">
      <root>
        <mxCell id="0" />
        <mxCell id="1" parent="0" />
        <mxCell id="IUyKyxl_PxbJLqRELmQZ-36" value="" style="edgeStyle=orthogonalEdgeStyle;rounded=0;orthogonalLoop=1;jettySize=auto;html=1;" parent="1" source="IUyKyxl_PxbJLqRELmQZ-2" target="IUyKyxl_PxbJLqRELmQZ-6" edge="1">
          <mxGeometry relative="1" as="geometry" />
        </mxCell>
        <mxCell id="IUyKyxl_PxbJLqRELmQZ-2" value="로봇 전원 ON" style="ellipse;whiteSpace=wrap;html=1;fillColor=#f8cecc;strokeColor=#b85450;fontStyle=1" parent="1" vertex="1">
          <mxGeometry x="20" width="120" height="80" as="geometry" />
        </mxCell>
        <mxCell id="IUyKyxl_PxbJLqRELmQZ-37" value="" style="edgeStyle=orthogonalEdgeStyle;rounded=0;orthogonalLoop=1;jettySize=auto;html=1;" parent="1" source="IUyKyxl_PxbJLqRELmQZ-6" target="IUyKyxl_PxbJLqRELmQZ-8" edge="1">
          <mxGeometry relative="1" as="geometry" />
        </mxCell>
        <mxCell id="IUyKyxl_PxbJLqRELmQZ-6" value="로봇 정보 세팅&lt;br&gt;(로봇 리스트)&lt;br&gt;(포인트 리스트)" style="rounded=0;whiteSpace=wrap;html=1;fillColor=#e1d5e7;strokeColor=#9673a6;fontStyle=1" parent="1" vertex="1">
          <mxGeometry x="20" y="120" width="120" height="60" as="geometry" />
        </mxCell>
        <mxCell id="IUyKyxl_PxbJLqRELmQZ-113" value="" style="edgeStyle=orthogonalEdgeStyle;rounded=0;orthogonalLoop=1;jettySize=auto;html=1;" parent="1" source="IUyKyxl_PxbJLqRELmQZ-8" target="IUyKyxl_PxbJLqRELmQZ-52" edge="1">
          <mxGeometry relative="1" as="geometry" />
        </mxCell>
        <mxCell id="IUyKyxl_PxbJLqRELmQZ-8" value="이동 명령" style="shape=parallelogram;perimeter=parallelogramPerimeter;whiteSpace=wrap;html=1;fixedSize=1;fillColor=#dae8fc;strokeColor=#6c8ebf;fontStyle=1" parent="1" vertex="1">
          <mxGeometry x="20" y="210" width="120" height="60" as="geometry" />
        </mxCell>
        <mxCell id="IUyKyxl_PxbJLqRELmQZ-56" value="" style="edgeStyle=orthogonalEdgeStyle;rounded=0;orthogonalLoop=1;jettySize=auto;html=1;" parent="1" source="IUyKyxl_PxbJLqRELmQZ-52" target="IUyKyxl_PxbJLqRELmQZ-55" edge="1">
          <mxGeometry relative="1" as="geometry" />
        </mxCell>
        <mxCell id="IUyKyxl_PxbJLqRELmQZ-115" value="" style="edgeStyle=orthogonalEdgeStyle;rounded=0;orthogonalLoop=1;jettySize=auto;html=1;" parent="1" source="IUyKyxl_PxbJLqRELmQZ-52" edge="1">
          <mxGeometry relative="1" as="geometry">
            <mxPoint x="80" y="500" as="targetPoint" />
          </mxGeometry>
        </mxCell>
        <mxCell id="IUyKyxl_PxbJLqRELmQZ-52" value="교차로" style="rhombus;whiteSpace=wrap;html=1;fillColor=#fff2cc;strokeColor=#d6b656;fontStyle=1" parent="1" vertex="1">
          <mxGeometry x="20" y="330" width="120" height="100" as="geometry" />
        </mxCell>
        <mxCell id="IUyKyxl_PxbJLqRELmQZ-78" value="" style="edgeStyle=orthogonalEdgeStyle;rounded=0;orthogonalLoop=1;jettySize=auto;html=1;" parent="1" source="IUyKyxl_PxbJLqRELmQZ-55" target="IUyKyxl_PxbJLqRELmQZ-75" edge="1">
          <mxGeometry relative="1" as="geometry" />
        </mxCell>
        <mxCell id="IUyKyxl_PxbJLqRELmQZ-126" style="edgeStyle=orthogonalEdgeStyle;rounded=0;orthogonalLoop=1;jettySize=auto;html=1;exitX=0.5;exitY=1;exitDx=0;exitDy=0;" parent="1" source="IUyKyxl_PxbJLqRELmQZ-55" edge="1">
          <mxGeometry relative="1" as="geometry">
            <mxPoint x="80.05882352941171" y="500" as="targetPoint" />
            <Array as="points">
              <mxPoint x="230" y="460" />
              <mxPoint x="80" y="460" />
            </Array>
          </mxGeometry>
        </mxCell>
        <mxCell id="IUyKyxl_PxbJLqRELmQZ-55" value="다른 로봇이&lt;br&gt;교차로에&lt;br&gt;이미 있는가?" style="rhombus;whiteSpace=wrap;html=1;fillColor=#fff2cc;strokeColor=#d6b656;fontStyle=1;rounded=0;shadow=0;" parent="1" vertex="1">
          <mxGeometry x="169" y="330" width="120" height="100" as="geometry" />
        </mxCell>
        <mxCell id="IUyKyxl_PxbJLqRELmQZ-62" value="YES" style="text;html=1;strokeColor=none;fillColor=none;align=center;verticalAlign=middle;whiteSpace=wrap;rounded=0;fontStyle=1" parent="1" vertex="1">
          <mxGeometry x="119" y="350" width="60" height="30" as="geometry" />
        </mxCell>
        <mxCell id="IUyKyxl_PxbJLqRELmQZ-127" style="edgeStyle=orthogonalEdgeStyle;rounded=0;orthogonalLoop=1;jettySize=auto;html=1;exitX=0.5;exitY=1;exitDx=0;exitDy=0;" parent="1" source="IUyKyxl_PxbJLqRELmQZ-66" edge="1">
          <mxGeometry relative="1" as="geometry">
            <mxPoint x="80.05882352941171" y="500" as="targetPoint" />
            <Array as="points">
              <mxPoint x="510" y="460" />
              <mxPoint x="80" y="460" />
            </Array>
          </mxGeometry>
        </mxCell>
        <mxCell id="IUyKyxl_PxbJLqRELmQZ-140" value="" style="edgeStyle=orthogonalEdgeStyle;rounded=0;orthogonalLoop=1;jettySize=auto;html=1;" parent="1" source="IUyKyxl_PxbJLqRELmQZ-66" target="IUyKyxl_PxbJLqRELmQZ-139" edge="1">
          <mxGeometry relative="1" as="geometry" />
        </mxCell>
        <mxCell id="IUyKyxl_PxbJLqRELmQZ-66" value="먼저 온 로봇이&lt;br&gt;교차로에&lt;br&gt;있는가?" style="rhombus;whiteSpace=wrap;html=1;fillColor=#fff2cc;strokeColor=#d6b656;fontStyle=1;shadow=0;gradientColor=none;" parent="1" vertex="1">
          <mxGeometry x="449" y="330" width="120" height="100" as="geometry" />
        </mxCell>
        <mxCell id="IUyKyxl_PxbJLqRELmQZ-89" value="" style="edgeStyle=orthogonalEdgeStyle;rounded=0;orthogonalLoop=1;jettySize=auto;html=1;" parent="1" source="IUyKyxl_PxbJLqRELmQZ-75" target="IUyKyxl_PxbJLqRELmQZ-66" edge="1">
          <mxGeometry relative="1" as="geometry" />
        </mxCell>
        <mxCell id="IUyKyxl_PxbJLqRELmQZ-75" value="정지 명령&lt;br&gt;" style="shape=parallelogram;perimeter=parallelogramPerimeter;whiteSpace=wrap;html=1;fixedSize=1;fillColor=#dae8fc;strokeColor=#6c8ebf;fontStyle=1" parent="1" vertex="1">
          <mxGeometry x="309" y="350" width="120" height="60" as="geometry" />
        </mxCell>
        <mxCell id="IUyKyxl_PxbJLqRELmQZ-105" value="YES" style="text;html=1;strokeColor=none;fillColor=none;align=center;verticalAlign=middle;whiteSpace=wrap;rounded=0;fontStyle=1" parent="1" vertex="1">
          <mxGeometry x="269" y="350" width="60" height="30" as="geometry" />
        </mxCell>
        <mxCell id="IUyKyxl_PxbJLqRELmQZ-106" value="YES" style="text;html=1;strokeColor=none;fillColor=none;align=center;verticalAlign=middle;whiteSpace=wrap;rounded=0;fontStyle=1" parent="1" vertex="1">
          <mxGeometry x="413" y="350" width="60" height="30" as="geometry" />
        </mxCell>
        <mxCell id="IUyKyxl_PxbJLqRELmQZ-118" value="" style="edgeStyle=orthogonalEdgeStyle;rounded=0;orthogonalLoop=1;jettySize=auto;html=1;" parent="1" source="IUyKyxl_PxbJLqRELmQZ-110" edge="1">
          <mxGeometry relative="1" as="geometry">
            <mxPoint x="80" y="750" as="targetPoint" />
          </mxGeometry>
        </mxCell>
        <mxCell id="IUyKyxl_PxbJLqRELmQZ-131" value="" style="edgeStyle=orthogonalEdgeStyle;rounded=0;orthogonalLoop=1;jettySize=auto;html=1;" parent="1" source="IUyKyxl_PxbJLqRELmQZ-110" target="IUyKyxl_PxbJLqRELmQZ-129" edge="1">
          <mxGeometry relative="1" as="geometry" />
        </mxCell>
        <mxCell id="IUyKyxl_PxbJLqRELmQZ-110" value="장애물이 일정거리 내로 접근" style="rhombus;whiteSpace=wrap;html=1;fillColor=#fff2cc;strokeColor=#d6b656;fontStyle=1" parent="1" vertex="1">
          <mxGeometry x="20" y="600" width="120" height="100" as="geometry" />
        </mxCell>
        <mxCell id="IUyKyxl_PxbJLqRELmQZ-112" value="NO" style="text;html=1;align=center;verticalAlign=middle;whiteSpace=wrap;rounded=0;fontStyle=1" parent="1" vertex="1">
          <mxGeometry x="30" y="460" width="60" height="30" as="geometry" />
        </mxCell>
        <mxCell id="IUyKyxl_PxbJLqRELmQZ-116" value="" style="edgeStyle=orthogonalEdgeStyle;rounded=0;orthogonalLoop=1;jettySize=auto;html=1;" parent="1" target="IUyKyxl_PxbJLqRELmQZ-110" edge="1">
          <mxGeometry relative="1" as="geometry">
            <mxPoint x="80" y="560" as="sourcePoint" />
          </mxGeometry>
        </mxCell>
        <mxCell id="IUyKyxl_PxbJLqRELmQZ-137" value="" style="edgeStyle=orthogonalEdgeStyle;rounded=0;orthogonalLoop=1;jettySize=auto;html=1;" parent="1" target="IUyKyxl_PxbJLqRELmQZ-136" edge="1">
          <mxGeometry relative="1" as="geometry">
            <mxPoint x="80" y="810" as="sourcePoint" />
          </mxGeometry>
        </mxCell>
        <mxCell id="IUyKyxl_PxbJLqRELmQZ-120" value="NO" style="text;html=1;align=center;verticalAlign=middle;whiteSpace=wrap;rounded=0;fontStyle=1" parent="1" vertex="1">
          <mxGeometry x="30" y="700" width="60" height="30" as="geometry" />
        </mxCell>
        <mxCell id="IUyKyxl_PxbJLqRELmQZ-155" value="" style="edgeStyle=orthogonalEdgeStyle;rounded=0;orthogonalLoop=1;jettySize=auto;html=1;" parent="1" source="IUyKyxl_PxbJLqRELmQZ-129" target="IUyKyxl_PxbJLqRELmQZ-148" edge="1">
          <mxGeometry relative="1" as="geometry" />
        </mxCell>
        <mxCell id="IUyKyxl_PxbJLqRELmQZ-166" value="" style="edgeStyle=orthogonalEdgeStyle;rounded=0;orthogonalLoop=1;jettySize=auto;html=1;" parent="1" source="IUyKyxl_PxbJLqRELmQZ-129" target="IUyKyxl_PxbJLqRELmQZ-165" edge="1">
          <mxGeometry relative="1" as="geometry" />
        </mxCell>
        <mxCell id="IUyKyxl_PxbJLqRELmQZ-129" value="장애물은 로봇인가?" style="rhombus;whiteSpace=wrap;html=1;fillColor=#fff2cc;strokeColor=#d6b656;fontStyle=1" parent="1" vertex="1">
          <mxGeometry x="190" y="600" width="120" height="100" as="geometry" />
        </mxCell>
        <mxCell id="IUyKyxl_PxbJLqRELmQZ-132" value="YES" style="text;html=1;strokeColor=none;fillColor=none;align=center;verticalAlign=middle;whiteSpace=wrap;rounded=0;fontStyle=1" parent="1" vertex="1">
          <mxGeometry x="130" y="620" width="60" height="30" as="geometry" />
        </mxCell>
        <mxCell id="IUyKyxl_PxbJLqRELmQZ-136" value="목적지 도착" style="ellipse;whiteSpace=wrap;html=1;fillColor=#f8cecc;strokeColor=#b85450;" parent="1" vertex="1">
          <mxGeometry x="20" y="950" width="120" height="80" as="geometry" />
        </mxCell>
        <mxCell id="IUyKyxl_PxbJLqRELmQZ-143" value="" style="edgeStyle=orthogonalEdgeStyle;rounded=0;orthogonalLoop=1;jettySize=auto;html=1;" parent="1" source="IUyKyxl_PxbJLqRELmQZ-139" target="IUyKyxl_PxbJLqRELmQZ-142" edge="1">
          <mxGeometry relative="1" as="geometry" />
        </mxCell>
        <mxCell id="IUyKyxl_PxbJLqRELmQZ-139" value="정지 명령&lt;br&gt;" style="shape=parallelogram;perimeter=parallelogramPerimeter;whiteSpace=wrap;html=1;fixedSize=1;fillColor=#dae8fc;strokeColor=#6c8ebf;fontStyle=1" parent="1" vertex="1">
          <mxGeometry x="589" y="350" width="120" height="60" as="geometry" />
        </mxCell>
        <mxCell id="IUyKyxl_PxbJLqRELmQZ-141" value="YES" style="text;html=1;strokeColor=none;fillColor=none;align=center;verticalAlign=middle;whiteSpace=wrap;rounded=0;fontStyle=1" parent="1" vertex="1">
          <mxGeometry x="549" y="350" width="60" height="30" as="geometry" />
        </mxCell>
        <mxCell id="IUyKyxl_PxbJLqRELmQZ-144" style="edgeStyle=orthogonalEdgeStyle;rounded=0;orthogonalLoop=1;jettySize=auto;html=1;" parent="1" source="IUyKyxl_PxbJLqRELmQZ-142" edge="1">
          <mxGeometry relative="1" as="geometry">
            <mxPoint x="80.05882352941171" y="500" as="targetPoint" />
            <Array as="points">
              <mxPoint x="790" y="460" />
              <mxPoint x="80" y="460" />
            </Array>
          </mxGeometry>
        </mxCell>
        <mxCell id="IUyKyxl_PxbJLqRELmQZ-170" value="" style="edgeStyle=orthogonalEdgeStyle;rounded=0;orthogonalLoop=1;jettySize=auto;html=1;" parent="1" source="IUyKyxl_PxbJLqRELmQZ-142" target="IUyKyxl_PxbJLqRELmQZ-169" edge="1">
          <mxGeometry relative="1" as="geometry" />
        </mxCell>
        <mxCell id="IUyKyxl_PxbJLqRELmQZ-142" value="먼저 온 로봇이&lt;br&gt;교차로에&lt;br&gt;있는가?" style="rhombus;whiteSpace=wrap;html=1;fillColor=#fff2cc;strokeColor=#d6b656;fontStyle=1" parent="1" vertex="1">
          <mxGeometry x="729" y="330" width="120" height="100" as="geometry" />
        </mxCell>
        <mxCell id="IUyKyxl_PxbJLqRELmQZ-145" value="반복" style="text;html=1;strokeColor=none;fillColor=none;align=center;verticalAlign=middle;whiteSpace=wrap;rounded=0;fontStyle=1;strokeWidth=1;fontSize=16;" parent="1" vertex="1">
          <mxGeometry x="826" y="300" width="60" height="30" as="geometry" />
        </mxCell>
        <mxCell id="IUyKyxl_PxbJLqRELmQZ-147" value="YES" style="text;html=1;strokeColor=none;fillColor=none;align=center;verticalAlign=middle;whiteSpace=wrap;rounded=0;fontStyle=1" parent="1" vertex="1">
          <mxGeometry x="689" y="350" width="60" height="30" as="geometry" />
        </mxCell>
        <mxCell id="IUyKyxl_PxbJLqRELmQZ-158" value="" style="edgeStyle=orthogonalEdgeStyle;rounded=0;orthogonalLoop=1;jettySize=auto;html=1;" parent="1" source="IUyKyxl_PxbJLqRELmQZ-148" edge="1">
          <mxGeometry relative="1" as="geometry">
            <mxPoint x="530" y="650" as="targetPoint" />
          </mxGeometry>
        </mxCell>
        <mxCell id="IUyKyxl_PxbJLqRELmQZ-160" value="" style="edgeStyle=orthogonalEdgeStyle;rounded=0;orthogonalLoop=1;jettySize=auto;html=1;" parent="1" source="IUyKyxl_PxbJLqRELmQZ-148" target="IUyKyxl_PxbJLqRELmQZ-159" edge="1">
          <mxGeometry relative="1" as="geometry" />
        </mxCell>
        <mxCell id="IUyKyxl_PxbJLqRELmQZ-148" value="접근한 로봇은 현재 작업중인가?" style="rhombus;whiteSpace=wrap;html=1;fillColor=#fff2cc;strokeColor=#d6b656;fontStyle=1" parent="1" vertex="1">
          <mxGeometry x="360" y="600" width="120" height="100" as="geometry" />
        </mxCell>
        <mxCell id="IUyKyxl_PxbJLqRELmQZ-150" value="YES" style="text;html=1;strokeColor=none;fillColor=none;align=center;verticalAlign=middle;whiteSpace=wrap;rounded=0;fontStyle=1" parent="1" vertex="1">
          <mxGeometry x="300" y="620" width="60" height="30" as="geometry" />
        </mxCell>
        <mxCell id="IUyKyxl_PxbJLqRELmQZ-183" style="edgeStyle=orthogonalEdgeStyle;rounded=0;orthogonalLoop=1;jettySize=auto;html=1;exitX=0.5;exitY=1;exitDx=0;exitDy=0;" parent="1" source="IUyKyxl_PxbJLqRELmQZ-159" edge="1">
          <mxGeometry relative="1" as="geometry">
            <Array as="points">
              <mxPoint x="420" y="890" />
            </Array>
            <mxPoint x="260" y="890" as="targetPoint" />
          </mxGeometry>
        </mxCell>
        <mxCell id="aKT5U8yHiQMUWrEARpJG-7" value="" style="edgeStyle=orthogonalEdgeStyle;rounded=0;orthogonalLoop=1;jettySize=auto;html=1;" edge="1" parent="1" source="IUyKyxl_PxbJLqRELmQZ-159" target="aKT5U8yHiQMUWrEARpJG-6">
          <mxGeometry relative="1" as="geometry" />
        </mxCell>
        <mxCell id="IUyKyxl_PxbJLqRELmQZ-159" value="접근한 로봇과 충돌위험이 있는가?&lt;br&gt;(마주보고 있는가?)" style="rhombus;whiteSpace=wrap;html=1;fillColor=#fff2cc;strokeColor=#d6b656;fontStyle=1;labelBackgroundColor=none;labelBorderColor=none;" parent="1" vertex="1">
          <mxGeometry x="360" y="730" width="120" height="100" as="geometry" />
        </mxCell>
        <mxCell id="IUyKyxl_PxbJLqRELmQZ-161" value="NO" style="text;html=1;align=center;verticalAlign=middle;whiteSpace=wrap;rounded=0;fontStyle=1" parent="1" vertex="1">
          <mxGeometry x="369" y="700" width="60" height="30" as="geometry" />
        </mxCell>
        <mxCell id="IUyKyxl_PxbJLqRELmQZ-162" value="YES" style="text;html=1;strokeColor=none;fillColor=none;align=center;verticalAlign=middle;whiteSpace=wrap;rounded=0;fontStyle=1" parent="1" vertex="1">
          <mxGeometry x="474" y="620" width="60" height="30" as="geometry" />
        </mxCell>
        <mxCell id="IUyKyxl_PxbJLqRELmQZ-179" value="" style="edgeStyle=orthogonalEdgeStyle;rounded=0;orthogonalLoop=1;jettySize=auto;html=1;" parent="1" source="IUyKyxl_PxbJLqRELmQZ-165" edge="1">
          <mxGeometry relative="1" as="geometry">
            <mxPoint x="130" y="780" as="targetPoint" />
          </mxGeometry>
        </mxCell>
        <mxCell id="IUyKyxl_PxbJLqRELmQZ-165" value="회피명령" style="shape=parallelogram;perimeter=parallelogramPerimeter;whiteSpace=wrap;html=1;fixedSize=1;fillColor=#dae8fc;strokeColor=#6c8ebf;fontStyle=1" parent="1" vertex="1">
          <mxGeometry x="190" y="750" width="120" height="60" as="geometry" />
        </mxCell>
        <mxCell id="IUyKyxl_PxbJLqRELmQZ-167" value="NO" style="text;html=1;align=center;verticalAlign=middle;whiteSpace=wrap;rounded=0;fontStyle=1" parent="1" vertex="1">
          <mxGeometry x="199" y="700" width="60" height="30" as="geometry" />
        </mxCell>
        <mxCell id="IUyKyxl_PxbJLqRELmQZ-169" value="정지 명령&lt;br&gt;" style="shape=parallelogram;perimeter=parallelogramPerimeter;whiteSpace=wrap;html=1;fixedSize=1;fillColor=#dae8fc;strokeColor=#6c8ebf;fontStyle=1" parent="1" vertex="1">
          <mxGeometry x="869" y="350" width="120" height="60" as="geometry" />
        </mxCell>
        <mxCell id="IUyKyxl_PxbJLqRELmQZ-172" value="YES" style="text;html=1;strokeColor=none;fillColor=none;align=center;verticalAlign=middle;whiteSpace=wrap;rounded=0;fontStyle=1" parent="1" vertex="1">
          <mxGeometry x="826" y="350" width="60" height="30" as="geometry" />
        </mxCell>
        <mxCell id="IUyKyxl_PxbJLqRELmQZ-191" style="edgeStyle=orthogonalEdgeStyle;rounded=0;orthogonalLoop=1;jettySize=auto;html=1;entryX=1;entryY=0.5;entryDx=0;entryDy=0;" parent="1" target="IUyKyxl_PxbJLqRELmQZ-189" edge="1">
          <mxGeometry relative="1" as="geometry">
            <mxPoint x="130" y="870" as="targetPoint" />
            <Array as="points">
              <mxPoint x="161" y="890" />
              <mxPoint x="161" y="780" />
            </Array>
            <mxPoint x="260" y="890" as="sourcePoint" />
          </mxGeometry>
        </mxCell>
        <mxCell id="IUyKyxl_PxbJLqRELmQZ-187" value="작업중인 로봇&lt;br&gt;회피 명령" style="shape=parallelogram;perimeter=parallelogramPerimeter;whiteSpace=wrap;html=1;fixedSize=1;fillColor=#dae8fc;strokeColor=#6c8ebf;fontStyle=1" parent="1" vertex="1">
          <mxGeometry x="519" y="620" width="120" height="60" as="geometry" />
        </mxCell>
        <mxCell id="IUyKyxl_PxbJLqRELmQZ-188" value="이동명령 계속 진행" style="rounded=0;whiteSpace=wrap;html=1;fillColor=#e1d5e7;strokeColor=#9673a6;fontStyle=1" parent="1" vertex="1">
          <mxGeometry x="20" y="500" width="120" height="60" as="geometry" />
        </mxCell>
        <mxCell id="IUyKyxl_PxbJLqRELmQZ-189" value="이동명령 계속 진행" style="rounded=0;whiteSpace=wrap;html=1;fillColor=#e1d5e7;strokeColor=#9673a6;fontStyle=1" parent="1" vertex="1">
          <mxGeometry x="20" y="750" width="120" height="60" as="geometry" />
        </mxCell>
        <mxCell id="aKT5U8yHiQMUWrEARpJG-1" value="NO" style="text;html=1;align=center;verticalAlign=middle;whiteSpace=wrap;rounded=0;fontStyle=1" vertex="1" parent="1">
          <mxGeometry x="179" y="430" width="60" height="30" as="geometry" />
        </mxCell>
        <mxCell id="aKT5U8yHiQMUWrEARpJG-2" value="NO" style="text;html=1;align=center;verticalAlign=middle;whiteSpace=wrap;rounded=0;fontStyle=1" vertex="1" parent="1">
          <mxGeometry x="459" y="430" width="60" height="30" as="geometry" />
        </mxCell>
        <mxCell id="aKT5U8yHiQMUWrEARpJG-3" value="NO" style="text;html=1;align=center;verticalAlign=middle;whiteSpace=wrap;rounded=0;fontStyle=1" vertex="1" parent="1">
          <mxGeometry x="740" y="430" width="60" height="30" as="geometry" />
        </mxCell>
        <mxCell id="aKT5U8yHiQMUWrEARpJG-5" value="NO" style="text;html=1;align=center;verticalAlign=middle;whiteSpace=wrap;rounded=0;fontStyle=1" vertex="1" parent="1">
          <mxGeometry x="369" y="830" width="60" height="30" as="geometry" />
        </mxCell>
        <mxCell id="aKT5U8yHiQMUWrEARpJG-6" value="양측 로봇에&lt;br&gt;회피명령" style="shape=parallelogram;perimeter=parallelogramPerimeter;whiteSpace=wrap;html=1;fixedSize=1;fillColor=#dae8fc;strokeColor=#6c8ebf;fontStyle=1" vertex="1" parent="1">
          <mxGeometry x="510" y="750" width="120" height="60" as="geometry" />
        </mxCell>
      </root>
    </mxGraphModel>
  </diagram>
</mxfile>
